<?xml version="1.0" standalone="no"?>
<!DOCTYPE svg PUBLIC "-//W3C//DTD SVG 20010904//EN"
 "http://www.w3.org/TR/2001/REC-SVG-20010904/DTD/svg10.dtd">
<svg version="1.0" xmlns="http://www.w3.org/2000/svg"
 width="512.000000pt" height="512.000000pt" viewBox="0 0 512.000000 512.000000"
 preserveAspectRatio="xMidYMid meet">
<metadata>
Created by potrace 1.16, written by Peter Selinger 2001-2019
</metadata>
<g transform="translate(0.000000,512.000000) scale(0.100000,-0.100000)"
fill="#000000" stroke="none">
<path d="M4320 4307 c-14 -7 -54 -55 -90 -108 -104 -152 -339 -428 -446 -523
l-97 -87 -22 53 c-140 341 -339 529 -578 546 -193 13 -361 -95 -457 -293 -52
-108 -64 -170 -58 -304 4 -105 6 -114 46 -195 95 -190 265 -289 467 -272 139
11 307 74 454 170 l70 45 20 -67 c28 -92 56 -215 83 -357 19 -104 22 -152 22
-355 0 -268 -11 -328 -84 -475 -50 -102 -102 -162 -192 -221 -188 -125 -473
-197 -708 -179 -194 16 -434 73 -586 140 l-53 23 50 84 c119 196 197 396 206
528 13 189 -91 490 -258 740 -75 112 -239 280 -321 329 -268 157 -565 120
-711 -89 -55 -79 -79 -163 -84 -301 -8 -185 39 -398 133 -606 113 -247 367
-510 672 -695 57 -34 80 -54 74 -61 -5 -7 -50 -66 -100 -133 -51 -67 -149
-188 -219 -270 -132 -155 -465 -496 -543 -555 l-44 -34 61 115 c77 146 199
358 274 479 33 51 59 101 59 111 0 48 -76 94 -118 71 -57 -30 -421 -707 -486
-903 -44 -129 -28 -188 49 -188 45 0 70 10 400 163 154 71 321 145 370 164 98
37 125 60 125 104 0 40 -32 69 -76 69 -36 0 -155 -44 -309 -114 l-79 -37 175
178 c225 229 445 486 569 662 l42 59 63 -28 c266 -119 639 -182 904 -151 253
30 506 133 650 266 218 200 301 574 235 1060 -19 141 -66 356 -104 476 -16 52
-26 96 -22 99 225 179 406 373 564 605 90 132 108 165 108 202 0 34 -8 46 -37
62 -27 14 -32 14 -63 -2z m-1135 -301 c134 -63 252 -216 348 -453 l25 -62 -76
-50 c-159 -104 -312 -161 -432 -161 -90 0 -150 23 -213 80 -104 95 -142 237
-102 376 71 245 260 358 450 270z m-1530 -585 c223 -110 451 -435 537 -765 41
-160 25 -278 -62 -461 -31 -64 -140 -255 -156 -274 -6 -6 -170 95 -254 157
-104 77 -316 292 -374 380 -148 225 -236 577 -192 767 40 170 146 248 328 242
79 -3 94 -7 173 -46z"/>
</g>
</svg>
