<?xml version="1.0" standalone="no"?>
<!DOCTYPE svg PUBLIC "-//W3C//DTD SVG 20010904//EN"
 "http://www.w3.org/TR/2001/REC-SVG-20010904/DTD/svg10.dtd">
<svg version="1.0" xmlns="http://www.w3.org/2000/svg"
 width="512.000000pt" height="512.000000pt" viewBox="0 0 512.000000 512.000000"
 preserveAspectRatio="xMidYMid meet">
<metadata>
Created by potrace 1.16, written by Peter Selinger 2001-2019
</metadata>
<g transform="translate(0.000000,512.000000) scale(0.100000,-0.100000)"
fill="#000000" stroke="none">
<path d="M1710 4340 c-48 -26 -1686 -1668 -1700 -1703 -13 -36 -13 -118 0
-154 14 -37 1654 -1678 1702 -1704 87 -45 207 -10 249 72 25 49 27 134 5 176
-8 15 -310 323 -670 683 l-656 655 2172 5 2173 5 42 22 c27 15 52 39 69 68 23
40 26 54 22 109 -5 75 -34 122 -95 152 -37 18 -105 19 -2211 24 l-2172 5 660
660 c479 479 663 669 671 694 43 130 -40 252 -172 251 -33 -1 -67 -8 -89 -20z"/>
</g>
</svg>
